<?xml version="1.0" encoding="UTF-8" standalone="no"?>
<svg
   xmlns:dc="http://purl.org/dc/elements/1.1/"
   xmlns:cc="http://creativecommons.org/ns#"
   xmlns:rdf="http://www.w3.org/1999/02/22-rdf-syntax-ns#"
   xmlns:svg="http://www.w3.org/2000/svg"
   xmlns="http://www.w3.org/2000/svg"
   xmlns:sodipodi="http://sodipodi.sourceforge.net/DTD/sodipodi-0.dtd"
   xmlns:inkscape="http://www.inkscape.org/namespaces/inkscape"
   sodipodi:docname="geobutton.svg"
   inkscape:version="1.0 (6e3e5246a0, 2020-05-07)"
   id="svg8"
   version="1.1"
   viewBox="0 0 423.93335 329.27423"
   height="329.27423mm"
   width="423.93335mm">
  <defs
     id="defs2" />
  <sodipodi:namedview
     inkscape:window-maximized="1"
     inkscape:window-y="27"
     inkscape:window-x="55"
     inkscape:window-height="1025"
     inkscape:window-width="1865"
     fit-margin-bottom="0"
     fit-margin-right="0"
     fit-margin-left="0"
     fit-margin-top="0"
     showgrid="false"
     inkscape:document-rotation="0"
     inkscape:current-layer="layer1"
     inkscape:document-units="mm"
     inkscape:cy="1044.5218"
     inkscape:cx="-338.51929"
     inkscape:zoom="0.18983802"
     inkscape:pageshadow="2"
     inkscape:pageopacity="0"
     borderopacity="1.0"
     bordercolor="#666666"
     pagecolor="#000000"
     id="base"
     units="mm" />
  <metadata
     id="metadata5">
    <rdf:RDF>
      <cc:Work
         rdf:about="">
        <dc:format>image/svg+xml</dc:format>
        <dc:type
           rdf:resource="http://purl.org/dc/dcmitype/StillImage" />
        <dc:title></dc:title>
      </cc:Work>
    </rdf:RDF>
  </metadata>
  <g
     transform="translate(421.54283,25.474983)"
     id="layer1"
     inkscape:groupmode="layer"
     inkscape:label="Layer 1">
    <g
       transform="translate(-160.33837,6.0251952)"
       id="g893">
      <path
         id="path867"
         d="m -51.286855,120.05031 c -6.894459,-0.81629 -12.878706,-5.76427 -15.049525,-12.44344 -0.964003,-2.96604 -1.088593,-7.63679 -0.276121,-10.351457 1.897667,-6.340569 7.170239,-11.442922 13.325034,-12.894853 2.376942,-0.560725 6.197112,-0.560725 8.574052,0 6.154795,1.451931 11.427369,6.554284 13.325035,12.894853 0.812471,2.714667 0.687882,7.385417 -0.276122,10.351457 -2.691915,8.28248 -10.884787,13.47796 -19.622353,12.44344 z"
         style="fill:#000000;stroke-width:0.286358" />
      <path
         id="path875"
         d="m -49.724048,208.40416 c -2.357929,-10.69249 -6.53941,-22.29411 -12.061462,-33.46482 -4.387361,-8.87531 -7.674621,-14.37015 -19.658809,-32.86082 -5.10446,-7.87579 -10.660737,-17.68518 -12.633967,-22.3048 -4.793987,-11.22343 -4.480207,-25.363149 0.81483,-36.718756 2.42792,-5.206861 5.239557,-9.14743 9.772619,-13.69655 3.697045,-3.71014 6.722445,-5.995699 10.910282,-8.242243 5.246044,-2.814215 11.619124,-4.803541 17.291558,-5.397479 3.727545,-0.390297 11.747296,-0.166945 14.892369,0.414755 6.281772,1.161853 13.428195,4.016088 18.421417,7.357396 10.462031,7.000866 18.0734914,18.419803 20.2327014,30.353717 1.43723997,7.94356 0.72738,17.15973 -1.83412,23.81249 -1.11461,2.89489 -6.0742307,12.81263 -8.2054904,16.40853 -0.90704,1.53037 -3.88666,6.23334 -6.62138,10.45104 -11.518006,17.764 -15.839327,25.24598 -20.64212,35.73995 -4.479354,9.78726 -7.395951,18.64205 -9.837751,29.86739 -0.224639,1.0327 -0.241131,0.99896 -0.840677,-1.7198 z m 4.068628,-89.81881 c 4.654878,-0.96871 9.547358,-4.71888 11.566335,-8.8658 1.338368,-2.74896 1.830967,-4.88679 1.822619,-7.90999 -0.0084,-3.045619 -0.472847,-4.995599 -1.865558,-7.83271 -1.93506,-3.941931 -5.340139,-6.876915 -9.77245,-8.423291 -2.02353,-0.705985 -2.62251,-0.795504 -5.322821,-0.795504 -2.700311,0 -3.299291,0.08952 -5.322821,0.795504 -4.432311,1.546376 -7.83739,4.481359 -9.77245,8.423291 -1.392711,2.83711 -1.85715,4.787091 -1.865558,7.83271 -0.01349,4.88772 1.511959,8.61855 4.913844,12.01789 4.275768,4.27256 9.826252,5.96338 15.61886,4.7579 z"
         style="fill:#faca29;stroke-width:0.264583" />
    </g>
    <path
       style="fill:#faca29;fill-opacity:1;stroke-width:0.357433"
       d="m -225.65241,303.44049 c -10.38874,-0.75171 -25.44378,-3.47988 -33.42007,-6.05616 -6.95464,-2.24629 -8.99044,-2.93138 -11.43789,-3.84913 -12.49038,-4.68363 -24.54375,-11.0434 -35.56468,-18.76511 -3.46367,-2.42679 -10.11382,-7.4461 -10.72302,-8.09339 -0.0983,-0.10443 -1.30463,-1.1533 -2.68075,-2.3308 -5.40488,-4.62478 -14.03749,-13.40746 -18.10106,-18.41573 -0.71593,-0.88234 -2.08662,-2.56933 -3.04599,-3.74887 -10.818,-13.30049 -20.74039,-31.77722 -26.585,-49.5046 -4.77915,-14.4957 -6.77336,-25.68139 -8.04515,-45.12605 l -0.22793,-3.48497 h -22.07934 c -21.79587,0 -22.09145,-0.01 -23.02115,-0.74081 -1.12893,-0.88802 -1.28589,-2.8878 -0.33541,-4.27309 0.59374,-0.86535 19.39323,-26.37217 26.20528,-35.55485 1.89588,-2.55566 4.54975,-6.174681 5.89748,-8.042276 1.34773,-1.867582 7.61583,-10.392387 13.92911,-18.943994 6.31329,-8.551608 13.43771,-18.224167 15.83207,-21.494581 4.38679,-5.991844 5.19044,-6.722632 6.75412,-6.141684 0.78101,0.290172 1.59702,1.168141 3.08813,3.322685 0.60918,0.880206 1.30702,1.845278 1.55074,2.144603 0.24372,0.299322 1.14901,1.509293 2.01176,2.688826 0.86275,1.179532 6.07305,8.256724 11.57846,15.727095 5.5054,7.470368 12.47758,16.960238 15.49374,21.088604 4.45899,6.103225 17.25002,23.497332 27.33584,37.173142 6.43764,8.72905 6.61411,9.00267 6.61411,10.255 0,0.82959 -0.2715,1.49204 -0.82433,2.0114 l -0.82434,0.77442 -22.14079,0.0921 -22.14081,0.0921 -0.1028,2.88876 c -0.10268,2.88434 0.8947,12.23566 1.84585,17.30626 2.43111,12.96042 7.40917,25.96248 14.43767,37.70928 2.16101,3.61174 6.53602,10.06721 7.99142,11.79165 0.33354,0.3952 1.51976,1.84446 2.636,3.22058 4.88047,6.01664 13.10916,13.80272 20.01576,18.93914 10.39651,7.73185 21.16597,13.35097 33.47288,17.46495 11.9557,3.99657 23.95255,5.94446 36.58417,5.94007 21.0539,-0.007 39.60192,-4.9769 58.44046,-15.65793 2.73961,-1.5533 8.8448,-5.68217 13.00439,-8.7947 4.65335,-3.48201 6.82994,-4.64569 10.13627,-5.41917 11.77818,-2.75538 23.53974,4.20382 26.8001,15.85737 0.9307,3.32662 0.76178,8.93492 -0.36986,12.27944 -1.85195,5.47337 -4.06113,8.31743 -10.07445,12.96966 -22.11033,17.10575 -48.94757,28.24591 -76.66959,31.82561 -9.41302,1.21549 -23.43554,1.58466 -33.24136,0.87512 z m 157.729649,-74.75232 c -0.60429,-0.65827 -15.37749,-20.62403 -27.04263,-36.54762 -3.13735,-4.28265 -26.557469,-36.05843 -28.452009,-38.60287 -8.90608,-11.96128 -11.08935,-15.18059 -11.08935,-16.35168 0,-0.8084 0.27663,-1.47657 0.82434,-1.99111 l 0.82434,-0.77442 22.1408,-0.0921 22.140789,-0.0921 0.11091,-2.68075 c 0.11942,-2.8885 -0.71711,-11.37759 -1.54983,-15.7271 -2.43281,-12.70719 -5.16553,-20.910288 -10.597449,-31.811625 -13.0067,-26.103109 -35.02544,-46.219675 -62.3269,-56.942562 -9.55439,-3.752567 -18.63635,-6.074004 -29.1138,-7.441764 -4.95384,-0.646691 -22.55842,-0.66052 -26.98628,-0.0212 -22.35155,3.227265 -39.61298,10.241216 -56.76998,23.067737 -7.57294,5.6615 -9.6753,6.487974 -16.50398,6.487974 -3.60263,0 -5.08833,-0.150355 -6.61252,-0.669199 -5.83055,-1.984745 -10.67448,-6.155564 -13.16132,-11.332416 -1.41742,-2.950667 -2.56578,-7.31323 -2.56578,-9.747302 0,-2.118512 1.05391,-6.893986 1.98718,-9.004256 1.17007,-2.645755 3.29406,-5.7374 5.05459,-7.357438 1.96521,-1.8083767 10.40208,-8.0513887 14.04684,-10.39422167 13.90863,-8.94041113 27.11721,-15.11521533 41.60387,-19.44916433 10.57457,-3.163579 18.3574,-4.716879 30.41907,-6.071047 7.31718,-0.821503 24.7715,-0.822811 31.81163,-0.0024 18.349,2.13832 32.73811,5.905687 48.96844,12.82095 8.20163,3.4944642 21.80044,11.29851433 29.56631,16.9674173 8.20645,5.9905207 11.10675,8.4602937 18.995369,16.1756487 17.19366,16.81602 29.76919,36.192069 38.35675,59.098997 5.82514,15.538382 8.613811,29.634651 9.96458,50.370011 l 0.227011,3.48497 h 22.143821 22.14378136 l 0.87736204,0.87735 c 0.607609,0.6076 0.877322,1.27421 0.877322,2.16832 0,1.09565 -0.758372,2.32852 -5.011942,8.14788 -8.4679634,11.58504 -9.9359134,13.58298 -19.8758244,27.05189 -10.071248,13.64684 -13.282183,18.01864 -15.708766,21.38809 -3.414777,4.74158 -25.225495,34.26322 -25.856015,34.99711 -0.46477,0.54096 -1.08892,0.80423 -1.90669,0.80423 -0.80377,0 -1.46595,-0.27254 -1.95399,-0.80423 z"
       id="path849" />
  </g>
</svg>
