<?xml version="1.0" encoding="UTF-8" standalone="no"?>
<svg
   xmlns:dc="http://purl.org/dc/elements/1.1/"
   xmlns:cc="http://creativecommons.org/ns#"
   xmlns:rdf="http://www.w3.org/1999/02/22-rdf-syntax-ns#"
   xmlns:svg="http://www.w3.org/2000/svg"
   xmlns="http://www.w3.org/2000/svg"
   xmlns:sodipodi="http://sodipodi.sourceforge.net/DTD/sodipodi-0.dtd"
   xmlns:inkscape="http://www.inkscape.org/namespaces/inkscape"
   sodipodi:docname="premium.svg"
   inkscape:version="1.0 (6e3e5246a0, 2020-05-07)"
   id="svg8"
   version="1.1"
   viewBox="0 0 29.882199 33.213127"
   height="125.52993"
   width="112.94059"
   inkscape:export-filename="/home/eyal/vswork/imok-ion/graphics/appicon.png"
   inkscape:export-xdpi="294.7113"
   inkscape:export-ydpi="294.7113">
  <defs
     id="defs2" />
  <sodipodi:namedview
     inkscape:guide-bbox="true"
     showguides="true"
     fit-margin-bottom="0"
     fit-margin-right="0"
     fit-margin-left="0"
     fit-margin-top="0"
     inkscape:object-nodes="false"
     inkscape:snap-others="false"
     inkscape:window-maximized="1"
     inkscape:window-y="27"
     inkscape:window-x="55"
     inkscape:window-height="1025"
     inkscape:window-width="1865"
     showgrid="false"
     inkscape:document-rotation="0"
     inkscape:current-layer="layer1"
     inkscape:document-units="mm"
     inkscape:cy="117.32013"
     inkscape:cx="20.826233"
     inkscape:zoom="1.979899"
     inkscape:pageshadow="2"
     inkscape:pageopacity="0"
     borderopacity="1.0"
     bordercolor="#666666"
     pagecolor="#000000"
     id="base"
     units="px" />
  <metadata
     id="metadata5">
    <rdf:RDF>
      <cc:Work
         rdf:about="">
        <dc:format>image/svg+xml</dc:format>
        <dc:type
           rdf:resource="http://purl.org/dc/dcmitype/StillImage" />
        <dc:title />
      </cc:Work>
    </rdf:RDF>
  </metadata>
  <g
     transform="translate(-27.931846,-88.097342)"
     id="layer1"
     inkscape:groupmode="layer"
     inkscape:label="Layer 1">
    <path
       style="fill:#817332;fill-opacity:1;stroke-width:0.0390744"
       d="m 33.8843,121.27802 c -1.687426,-0.0172 -2.843649,-0.0447 -3.018292,-0.0718 -0.74894,-0.11631 -1.590311,-0.62199 -2.110227,-1.26828 -0.279498,-0.34744 -0.46523,-0.66702 -0.666543,-1.14687 l -0.144245,-0.34384 -0.01124,-9.70641 c -0.0065,-5.65002 0.0042,-10.067158 0.02562,-10.569625 0.04006,-0.938448 0.08468,-1.162448 0.327577,-1.644697 0.531627,-1.055492 1.622853,-1.890633 2.588614,-1.981128 0.534433,-0.05008 19.690969,-0.08283 22.116117,-0.03781 l 2.070942,0.03844 0.317771,0.116439 c 1.068694,0.391588 1.912245,1.27525 2.281583,2.390071 0.07222,0.217982 0.08837,0.394229 0.118208,1.289456 0.04516,1.35514 0.04513,18.184244 -3.3e-5,19.230424 -0.03364,0.77917 -0.03945,0.81946 -0.178865,1.23913 -0.178221,0.53651 -0.40757,0.89719 -0.87042,1.36888 -0.546286,0.55672 -1.11812,0.88285 -1.765931,1.00716 -0.230456,0.0442 -1.015065,0.0641 -3.672992,0.0928 -3.801817,0.0412 -13.264692,0.0399 -17.407645,-0.002 z"
       id="path1159" />
    <path
       style="fill:#fbdc00;fill-opacity:1;stroke-width:0.0390744"
       d="m 54.838813,119.13542 c 0.199895,-0.10054 0.36984,-0.22368 0.502785,-0.36431 0.295964,-0.31306 0.369489,-0.48379 0.407925,-0.9472 0.01792,-0.21596 0.03334,-4.86307 0.03427,-10.32692 l 0.0018,-9.934263 L 55.61465,97.29604 C 55.400222,96.961509 55.18247,96.770749 54.808734,96.590021 L 54.515642,96.448309 H 42.85104 31.186504 l -0.253154,0.124878 c -0.324432,0.160041 -0.661471,0.461605 -0.834801,0.74694 l -0.136352,0.224456 -0.009,10.080097 c -0.0064,7.17032 0.0034,10.15669 0.03391,10.34542 0.02359,0.14593 0.08196,0.34605 0.12972,0.4447 0.128827,0.26612 0.447817,0.56309 0.782009,0.72803 l 0.289301,0.14278 11.674344,10e-4 11.674343,0.001 0.301959,-0.15188 z"
       id="path1165" />
    <path
       id="path1167"
       style="fill:#000000;fill-opacity:1;stroke-width:0.151971"
       d="m 42.81567,102.56625 c -1.1029,0.01 -2.135721,0.69523 -2.72032,1.90577 -0.51545,1.06734 -0.729462,2.28442 -0.656108,3.73063 0.135073,2.66308 0.9483,4.33163 2.358618,4.83935 0.474229,0.17073 1.575836,0.17008 2.063088,-0.001 v 1.3e-4 c 1.04229,-0.36634 1.802205,-1.50342 2.161973,-3.23473 0.627881,-3.02152 -0.217995,-6.10298 -1.903026,-6.93252 -0.430416,-0.21189 -0.872655,-0.3113 -1.304225,-0.30739 z m -8.163458,0.11961 c -0.459966,0.006 -0.913569,0.11367 -1.332192,0.32499 -1.275899,0.64407 -1.804844,2.2982 -1.157772,3.62077 0.253459,0.51805 0.765323,0.98565 1.923378,1.7567 0.906528,0.60357 1.065481,0.73554 1.29049,1.07249 0.150654,0.22561 0.273606,0.49766 0.297778,0.65886 0.12534,0.83583 -0.731886,1.29524 -1.478898,0.79257 -0.169808,-0.11427 -0.398284,-0.32595 -0.50778,-0.47033 l -0.19914,-0.26244 -0.793824,0.46745 c -0.436635,0.25711 -0.82196,0.47809 -0.856247,0.49106 -0.08749,0.0331 0.648184,1.03897 0.957254,1.30884 0.304661,0.26602 0.927277,0.57299 1.31746,0.64962 0.451309,0.0886 1.151852,0.0766 1.547692,-0.0265 0.519843,-0.13541 0.809553,-0.29849 1.24317,-0.69993 0.923552,-0.85505 1.183686,-2.36571 0.606041,-3.51939 -0.221818,-0.44302 -0.997544,-1.18246 -1.870937,-1.78342 -1.180909,-0.81254 -1.532957,-1.21733 -1.532957,-1.76281 0,-0.2052 0.04493,-0.30818 0.215496,-0.4943 0.192752,-0.21033 0.248873,-0.2351 0.532752,-0.2351 0.390454,0 0.851412,0.24892 1.059639,0.57221 0.07805,0.12118 0.172046,0.2129 0.209005,0.20389 0.03696,-0.009 0.416982,-0.21524 0.844388,-0.45835 0.536962,-0.30541 0.763068,-0.46723 0.731644,-0.52338 -0.14675,-0.26223 -0.702106,-0.81289 -1.078489,-1.0695 -0.609908,-0.41583 -1.295693,-0.62313 -1.967951,-0.61403 z m 15.864081,1.4e-4 c -1.10555,-0.0206 -2.131013,0.53026 -2.622185,1.52797 -0.195412,0.39694 -0.20426,0.44804 -0.20426,1.18461 0,0.73986 0.0081,0.78619 0.208506,1.19323 0.275908,0.56045 0.781137,1.02701 1.956961,1.80702 0.944678,0.62667 1.219393,0.89041 1.445187,1.388 0.160797,0.35436 0.162037,0.6708 0.0038,0.93041 -0.383491,0.62895 -1.341548,0.48865 -1.844093,-0.27006 l -0.180539,-0.27243 -0.826535,0.47157 c -0.454587,0.25937 -0.836306,0.5009 -0.848258,0.53675 -0.03413,0.1024 0.513379,0.83001 0.897076,1.19223 0.413424,0.39029 0.76046,0.57836 1.290368,0.69906 0.551278,0.12557 1.442226,0.08 1.908268,-0.0975 0.734388,-0.27973 1.370213,-0.91543 1.649946,-1.64982 0.0896,-0.23522 0.151387,-0.5735 0.172049,-0.94227 0.07731,-1.37992 -0.384378,-2.07584 -2.254989,-3.39903 -0.87202,-0.61683 -1.082585,-0.80629 -1.301602,-1.17163 -0.263176,-0.439 -0.09611,-1.00253 0.352837,-1.19011 0.393193,-0.16429 0.941568,0.0403 1.315961,0.49105 l 0.219869,0.26469 0.810301,-0.46183 c 0.445641,-0.25397 0.810178,-0.48822 0.810178,-0.52065 0,-0.14282 -1.078389,-1.1265 -1.444186,-1.31733 -0.492952,-0.25717 -1.012082,-0.38456 -1.514605,-0.39392 z m -7.701997,2.10529 c 0.50482,0 0.784842,0.31841 0.989469,1.12506 0.158212,0.62368 0.159271,3.22164 0.0015,3.91605 -0.208116,0.91642 -0.669145,1.37017 -1.197475,1.17863 -0.05274,-0.0191 -0.190228,-0.12394 -0.305518,-0.23298 -0.428582,-0.40539 -0.627331,-1.55095 -0.567337,-3.26993 0.06755,-1.93561 0.377912,-2.71683 1.079363,-2.71683 z" />
    <path
       id="rect849"
       style="fill:#ffffff;fill-opacity:1;stroke-width:1.10143"
       d="m 46.274063,93.397721 c -0.03854,-5.04e-4 -0.291209,-0.261255 -0.953589,-0.983599 -0.100939,-0.110076 -0.205997,-0.222966 -0.233571,-0.250792 -0.02754,-0.02782 -0.207633,-0.223068 -0.400331,-0.433995 -0.192706,-0.210932 -0.391476,-0.42872 -0.441825,-0.483841 l -0.09186,-0.100213 v -0.77587 c -4.9e-5,-0.426694 0.01198,-0.77587 0.02688,-0.77587 0.01488,0 0.09213,0.0715 0.171719,0.158672 0.07959,0.08718 0.221346,0.241086 0.314993,0.342134 0.09365,0.101053 0.326537,0.352649 0.517508,0.559002 0.190959,0.206357 0.367385,0.375016 0.391981,0.375016 0.03691,0 0.04223,-0.248744 0.03001,-1.425168 -0.01036,-0.998567 -0.004,-1.438095 0.02139,-1.468749 0.02809,-0.03423 0.17673,-0.04173 0.657126,-0.03471 l 0.621114,0.0091 0.0084,1.459877 c 0.0075,1.244252 0.016,1.459616 0.05689,1.459616 0.02645,0 0.05999,-0.02069 0.07464,-0.04619 0.01469,-0.02551 0.206728,-0.239585 0.426949,-0.475491 0.335595,-0.359482 0.59728,-0.641431 0.806927,-0.87008 0.02505,-0.02732 0.0444,-0.04333 0.0595,-0.04019 0.0151,0.0031 0.02579,0.02541 0.03341,0.07516 0.0152,0.09951 0.01802,0.308427 0.01802,0.691315 v 0.769084 l -0.239573,0.257058 c -0.131731,0.141276 -0.322387,0.346843 -0.423817,0.456961 -0.101432,0.110118 -0.275282,0.297903 -0.38624,0.417292 -0.661434,0.711713 -0.940845,1.017529 -0.979427,1.072327 -0.02389,0.03393 -0.063,0.06194 -0.0869,0.06211 z" />
    <path
       id="path864"
       style="fill:#817332;fill-opacity:1;stroke-width:1.10143"
       d="m 46.274063,93.397721 h 2.52e-4 c 0.02389,-1.72e-4 0.06302,-0.02818 0.0869,-0.06211 0.03858,-0.0548 0.317992,-0.360615 0.979424,-1.072327 0.110958,-0.119389 0.284808,-0.307175 0.38624,-0.417293 0.101432,-0.110118 0.292086,-0.315685 0.423819,-0.456963 l 0.239574,-0.257056 v -0.769085 c 0,-0.382887 -0.0028,-0.591807 -0.01802,-0.691314 -0.0076,-0.04975 -0.01832,-0.07202 -0.03341,-0.07516 -0.0151,-0.0031 -0.03446,0.01287 -0.0595,0.04019 -0.209648,0.228649 -0.471332,0.510598 -0.806924,0.87008 -0.220225,0.235906 -0.41228,0.449978 -0.426952,0.475491 -0.01464,0.0255 -0.04818,0.04619 -0.07464,0.04619 -0.0409,0 -0.04944,-0.215363 -0.05689,-1.459616 l -0.0084,-1.459876 -0.621111,-0.0091 c -0.4804,-0.007 -0.629036,4.78e-4 -0.65713,0.03471 -0.02546,0.03065 -0.03175,0.470182 -0.02139,1.46875 0.01221,1.176424 0.0069,1.425168 -0.03001,1.425168 -0.02459,0 -0.201021,-0.168659 -0.391981,-0.375017 -0.19097,-0.206353 -0.423862,-0.457949 -0.517507,-0.559002 -0.09365,-0.101048 -0.235403,-0.254959 -0.314993,-0.342134 -0.07958,-0.08718 -0.156842,-0.158671 -0.171719,-0.158671 -0.0149,0 -0.02693,0.349175 -0.02688,0.775869 v 0.77587 l 0.09186,0.100214 c 0.05035,0.05512 0.249119,0.272907 0.441825,0.483841 0.192698,0.210927 0.372793,0.406172 0.400332,0.433993 0.02757,0.02783 0.132632,0.140716 0.23357,0.250794 0.662378,0.722344 0.915041,0.983052 0.95359,0.983596 z" />
    <path
       id="path862"
       style="fill:#817332;fill-opacity:1;stroke-width:1.10143"
       d="m 39.665473,93.425905 c -0.08277,0 -0.183069,-0.001 -0.303772,-0.0026 l -0.631551,-0.0089 -0.0084,-1.459868 c -0.0074,-1.227988 -0.01615,-1.459876 -0.05559,-1.459876 -0.02577,0 -0.05239,0.01383 -0.0582,0.0308 -0.0061,0.017 -0.07868,0.103286 -0.16128,0.191815 -0.217317,0.232881 -0.866794,0.938002 -1.015964,1.102868 -0.07015,0.07753 -0.140464,0.132975 -0.156322,0.123177 -0.01581,-0.0098 -0.02897,-0.351401 -0.02897,-0.759166 0,-0.420702 -0.0055,-0.611502 0.03132,-0.742205 0.01841,-0.06535 0.04731,-0.115777 0.09291,-0.172241 0.0456,-0.05646 0.107822,-0.119053 0.192598,-0.209038 0.112379,-0.119294 0.293447,-0.314462 0.402417,-0.433736 0.108966,-0.119274 0.205589,-0.224328 0.214781,-0.23357 0.0092,-0.0092 0.18962,-0.204333 0.400591,-0.433735 0.210969,-0.22941 0.472606,-0.510852 0.581446,-0.62555 0.108835,-0.114703 0.207618,-0.208777 0.219739,-0.208777 0.01214,0 0.08112,0.064 0.152929,0.14223 0.07181,0.07823 0.288013,0.314764 0.480709,0.525597 0.192704,0.210825 0.372809,0.406001 0.400332,0.433474 0.02753,0.02753 0.207972,0.222681 0.400593,0.433736 0.19262,0.211054 0.421083,0.45889 0.508112,0.55065 l 0.158412,0.166777 v 0.800922 0.800661 l -0.192338,-0.200164 c -0.105663,-0.110118 -0.364486,-0.387584 -0.575181,-0.616677 -0.210691,-0.229086 -0.438503,-0.47637 -0.506286,-0.549607 -0.06778,-0.07326 -0.131792,-0.12422 -0.142752,-0.113261 -0.01101,0.01097 -0.0193,0.656342 -0.01879,1.43404 7.06e-4,0.777703 -0.01131,1.432833 -0.02636,1.456214 -0.01567,0.02465 -0.106873,0.03525 -0.355183,0.03576 z" />
    <path
       id="path881"
       d="m 30.781879,111.76848 c 0.01779,0.13779 0.02271,0.4033 0.119619,0.50853 0.182628,0.19831 0.718914,0.10836 0.965572,0.14258 v -0.031 l -0.09302,-0.031 0.155028,0.031 0.217038,-0.062 c 0.08115,0.12516 0.23584,0.093 0.372066,0.093 0.3201,0 0.641162,-0.007 0.961169,5.1e-4 1.343901,0.0329 2.687058,-5.1e-4 4.03071,-5.1e-4 4.103667,0 8.206527,0.0498 12.309169,-0.0293 1.032421,-0.0199 2.099845,0.008 3.131553,0.0333 0.562935,0.0139 1.14652,0.0687 1.705301,-0.035 v 5.51897 l -8.929574,-0.031 c 0.09032,0.15449 0.224728,0.0883 0.376872,0.10805 0.401736,0.0521 0.830292,0.0468 1.235413,0.047 0.133167,6e-5 0.322798,0.065 0.434076,0 0.17825,0.12486 0.501265,0.062 0.713125,0.062 v -0.031 h -0.27905 v -0.031 h 0.589104 v 0.031 l -0.186032,0.031 v 0.031 c 0.244044,0 0.599832,-0.0694 0.831442,-0.003 0.108301,0.0309 0.167492,0.16826 0.254988,0.23372 0.140145,0.10486 0.333619,0.0866 0.494849,0.0488 v 0.12402 0.031 h 4.650819 l -0.031,-0.093 h 0.186032 l 0.186033,0.062 v -0.40307 l 0.06201,0.031 v -0.12402 l -0.06201,0.031 c 0,-0.12473 -0.03687,-0.30376 0.06201,-0.27905 l -0.06201,-0.34106 h 0.03101 v 0.093 h 0.031 v -0.24805 l -0.06201,0.031 0.124022,-1.36424 -0.155029,0.18603 h -0.031 v -0.40307 h 0.124022 v 0.15503 h 0.03101 c 0.0817,-0.27645 0.05795,-0.5443 -0.186032,-0.71313 v -0.031 l 0.09302,-0.093 0.09302,0.062 v -1.45726 l -0.09302,-0.43407 -0.09302,-1.08519 -0.09302,-0.37207 v 0.27905 h -0.961171 v 0.031 h 0.06201 v 0.031 l -0.310054,-0.062 0.03101,-0.15503 c -0.373894,0.004 -0.822823,-0.14001 -1.178208,0.031 v -0.093 h -0.03101 c -0.04734,0.10087 -0.07813,0.12675 -0.186033,0.093 h -0.031 l -0.620111,0.18603 c -0.339694,-0.13573 -0.983927,0.031 -1.36424,0.031 l 0.03101,-0.093 H 50.1293 v -0.031 h 0.27905 v -0.031 c -0.125075,-0.0368 -0.824776,0.0695 -0.837147,0.15503 l -1.302694,-0.0186 -0.774672,-0.0125 -0.03101,-0.093 c -0.161661,0.0619 -0.272102,0.0686 -0.434076,0 l -0.031,0.093 -0.124022,-0.031 c 0.276631,-0.36643 0.946442,-0.19572 1.395245,-0.27905 -0.414109,-0.17377 -1.108042,-0.0113 -1.550273,-5e-4 -1.176626,0.0288 -2.357594,5e-4 -3.534623,5e-4 -2.885895,0 -5.767698,0.0449 -8.650524,0.031 -1.249737,-0.006 -2.50389,-0.0723 -3.751661,-0.062 m 18.510261,0 v 0.031 c 0.354578,0.11534 0.734488,0.14567 1.085193,0 l -1.085193,-0.031 m 2.098048,0.0723 0.02064,0.0103 -0.02064,-0.0103 m -20.639315,0.0517 0.03101,0.031 -0.03101,-0.031 m 22.01388,0 v 0.062 h -0.06201 l 0.06201,-0.062 m 0.155026,0.0103 0.01033,0.0103 c -0.0153,0.005 -0.03429,-0.0103 -0.01033,-0.0103 m 0.217039,-0.0103 -0.031,0.031 0.031,-0.031 m -1.58128,0.031 0.03101,0.031 -0.03101,-0.031 m 0.310057,0 0.031,0.031 -0.031,-0.031 m 0.07234,0.0207 0.01036,0.0207 -0.01036,-0.0207 m 0.08269,-0.0207 v 0.031 h 0.09302 l -0.09302,-0.031 m 0.134349,0.0207 0.01036,0.0207 -0.01036,-0.0207 m -0.692447,0.0103 0.03101,0.031 -0.03101,-0.031 m 0.21704,0 0.031,0.031 -0.031,-0.031 m 0.992175,0 -0.03101,0.031 0.03101,-0.031 m 0.155026,0 -0.03101,0.031 0.03101,-0.031 m -0.5581,0.031 -0.06201,0.062 0.06201,-0.062 m 2.108373,0 v 0.031 h 0.496089 l -0.496089,-0.031 m -7.255278,0.031 0.031,0.031 -0.031,-0.031 m 0.403071,0 0.031,0.031 -0.031,-0.031 m 0.124022,0 0.031,0.031 -0.031,-0.031 m 0.217039,0 0.031,0.031 -0.031,-0.031 m 0.155026,0 0.03101,0.031 -0.03101,-0.031 m 2.449431,0 0.03101,0.031 -0.03101,-0.031 m -0.248043,0.0724 0.01033,0.0103 c -0.0153,0.005 -0.03429,-0.0103 -0.01033,-0.0103 m 0.144703,0.0103 -0.01036,0.0207 0.01036,-0.0207 m 0.279048,-0.0103 0.02064,0.0103 -0.02064,-0.0103 m -0.702801,0.0207 v 0.031 h -0.09302 l 0.09302,-0.031 m 0.155028,0 -0.03101,0.031 0.03101,-0.031 m -18.014175,0.21704 -0.03101,0.031 0.03101,-0.031 m -1.302229,0.27905 -0.06201,0.37207 -0.09302,-0.062 0.03101,0.12403 0.09302,-0.031 -0.031,0.24805 0.06201,-0.031 v 0.031 l -0.155028,0.86815 0.03101,0.21704 0.09302,0.031 -0.06201,0.21704 c 0.121632,0.21453 0.140976,0.56228 0.124022,0.80614 h 0.03101 l 0.06201,-1.1162 h 0.03101 l -0.03101,1.42626 -0.09302,-0.031 0.03101,0.5891 h -0.06201 l -0.09302,-0.55806 h -0.03101 v 0.12403 h -0.03101 l -0.06201,-0.24805 h -0.03101 l -0.03101,2.29441 0.03101,0.031 0.124022,-0.062 0.496087,0.031 0.03101,-3.62764 -0.03101,-1.73631 -0.372065,0.093 m 0,-0.062 0.03101,0.031 -0.03101,-0.031 m -0.113688,0.1757 0.01034,0.0207 -0.01034,-0.0207 m -0.02067,0.11368 0.02067,0.0103 -0.02067,-0.0103 m 0.01033,0.26871 v 0.18604 h 0.03101 l -0.03101,-0.18604 m 1.7053,3.84468 h 0.930164 v -1.30223 c 0.311853,0 0.630961,0.0218 0.930164,-0.0837 0.75796,-0.26733 1.053752,-1.38557 0.432836,-1.95694 -0.383506,-0.3529 -0.911653,-0.31579 -1.394005,-0.31579 -0.171181,0 -0.755678,-0.0912 -0.867291,0.0497 -0.132233,0.16696 -0.03187,0.73206 -0.03187,0.94246 v 2.66647 m 2.852502,-3.65864 v 3.65864 h 0.899159 v -1.39524 c 0.217131,0.0168 0.258245,0.20125 0.350641,0.37206 0.152423,0.28187 0.287544,0.75201 0.516458,0.97348 0.167677,0.16219 0.826698,0.0497 1.05524,0.0497 l -0.806143,-1.55027 c 0.805057,-0.25697 0.816281,-1.4562 0.186033,-1.89753 -0.56154,-0.39322 -1.552102,-0.21084 -2.201388,-0.21084 m 2.976525,0 v 3.65864 h 1.643289 c 0.179646,0 0.506816,0.0634 0.668664,-0.0187 0.137323,-0.0697 0.126348,-0.73566 0.0036,-0.81758 -0.103868,-0.0693 -0.305062,-0.0319 -0.424217,-0.0319 h -1.02318 v -0.58911 h 1.333235 l -0.03187,-0.78744 -0.340193,-0.0497 h -0.961169 v -0.49609 h 0.930164 c 0.122905,0 0.311636,0.0344 0.424217,-0.023 0.127339,-0.0649 0.128424,-0.76325 0,-0.82644 -0.158748,-0.0781 -0.466291,-0.0187 -0.641255,-0.0187 h -1.581279 m 3.472612,1.6743 h 0.03101 c 0.06186,0.42052 0.248353,0.83804 0.38239,1.24022 0.04127,0.12374 0.07314,0.35643 0.1887,0.4332 0.119432,0.0794 0.726767,0.086 0.829024,-0.0178 0.103496,-0.1052 0.1354,-0.34007 0.181165,-0.47739 0.12675,-0.38025 0.313465,-0.78146 0.372065,-1.17821 h 0.03101 v 1.36424 c 0,0.15196 -0.04942,0.4098 0.0187,0.54824 0.06015,0.12223 0.735109,0.12632 0.817583,0.0222 0.128827,-0.16266 0.03187,-0.70689 0.03187,-0.91147 0,-0.83597 0.07392,-1.70967 -0.0018,-2.54185 -0.02431,-0.2672 -0.694709,-0.15564 -0.89733,-0.15562 -0.08496,0 -0.215612,-0.0226 -0.288289,0.0319 -0.163057,0.1223 -0.221192,0.58409 -0.27849,0.77428 -0.123093,0.40856 -0.221721,0.85023 -0.39439,1.24022 -0.117666,-0.36165 -0.231115,-0.72435 -0.351386,-1.08519 -0.07447,-0.22337 -0.141539,-0.79498 -0.343726,-0.92931 -0.07261,-0.0482 -0.183552,-0.0318 -0.266058,-0.0319 -0.205194,-1e-4 -0.864432,-0.11281 -0.895778,0.15562 -0.09733,0.83311 -0.0034,1.73351 -0.0034,2.57286 0,0.20349 -0.09283,0.71709 0.03655,0.88046 0.08933,0.1128 0.747077,0.0991 0.790733,-0.0479 0.0533,-0.17956 0.0099,-0.42884 0.0099,-0.61552 v -1.27123 m 3.584325,-1.64243 c -0.149757,0.11861 -0.0497,0.77611 -0.0497,0.96031 v 1.82932 c 0,0.20548 -0.07265,0.57962 0.0187,0.76528 0.06232,0.1266 0.816064,0.12533 0.923776,0.04 0.149757,-0.1186 0.0497,-0.7761 0.0497,-0.9603 v -1.82933 c 0,-0.20547 0.07265,-0.57962 -0.0187,-0.76528 -0.06232,-0.1266 -0.816065,-0.1253 -0.923778,-0.04 m 1.252528,-0.0319 v 2.17038 c 0,0.18727 -0.03978,0.61611 0.186035,0.68212 l 0.031,0.093 c -0.0125,0.21359 0.203582,0.39163 0.372065,0.4976 0.406264,0.25552 1.009166,0.30395 1.457258,0.1279 1.059952,-0.4165 0.868151,-1.629 0.868151,-2.54784 0,-0.21624 0.103776,-0.80221 -0.03187,-0.97347 -0.0843,-0.10646 -0.818575,-0.10185 -0.879593,0.0222 -0.07147,0.14524 -0.0187,0.4196 -0.0187,0.57925 0,0.52101 0.138625,1.27758 -0.04846,1.76731 -0.158531,0.41498 -0.703484,0.48886 -0.932334,0.0929 -0.211427,-0.36583 -0.104396,-0.95673 -0.104396,-1.36411 v -1.14721 h -0.899158 m 4.092721,1.6743 h 0.03101 c 0.09643,0.41684 0.257438,0.83398 0.392746,1.24022 0.04003,0.12017 0.07193,0.3565 0.181164,0.43321 0.118783,0.0834 0.724597,0.0825 0.830575,-0.0178 0.108551,-0.10281 0.141075,-0.33926 0.187119,-0.47739 0.130407,-0.39116 0.322951,-0.80363 0.392747,-1.20921 h 0.031 c 0,0.4697 0.03922,0.95872 -0.0053,1.42625 -0.01275,0.13413 -0.0963,0.45643 0.02828,0.55723 0.146811,0.11878 0.62845,0.0319 0.814142,0.0319 v -2.54245 c 0,-0.27387 0.102256,-0.79849 -0.0187,-1.04433 -0.04486,-0.0911 -0.176514,-0.0717 -0.260353,-0.0719 -0.203923,-5e-4 -0.755138,-0.0961 -0.908369,0.0497 -0.115184,0.10962 -0.149537,0.39031 -0.197161,0.53939 -0.153108,0.47925 -0.331389,0.96733 -0.444743,1.45725 -0.171399,-0.38667 -0.270742,-0.80822 -0.403105,-1.20921 -0.06486,-0.19657 -0.132547,-0.6791 -0.300782,-0.80528 -0.0666,-0.0499 -0.179521,-0.0318 -0.257282,-0.0319 -0.181723,-8e-5 -0.85597,-0.10064 -0.894572,0.12584 -0.139089,0.81635 -0.0046,1.77331 -0.0046,2.60264 0,0.19878 -0.09354,0.72212 0.03187,0.88046 0.09032,0.11404 0.744256,0.0989 0.79182,-0.0479 0.07128,-0.22008 5.04e-4,-0.51497 -0.01479,-0.73954 -0.02595,-0.37904 -0.0028,-0.76726 -0.0028,-1.1472 m -19.9675,-1.51925 v 0.12402 h 0.03101 l -0.03101,-0.12402 m 16.732628,0.0207 -0.01036,0.0207 0.01036,-0.0207 m -0.113697,0.0103 -0.03101,0.031 0.03101,-0.031 m 0.124021,0.062 -0.03101,0.031 0.03101,-0.031 m -0.372064,0.031 v 0.031 h -0.09302 l 0.09302,-0.031 m 0.237718,0.0207 -0.01036,0.0207 0.01036,-0.0207 m -0.299732,0.13436 h -0.279047 c 0.09577,-0.0682 0.204915,-0.10743 0.279047,0 m 0.186035,-0.093 0.124022,0.18604 -0.06201,0.062 h -0.03101 l -0.031,-0.24805 m -16.525914,0.031 0.03101,0.031 -0.03101,-0.031 m 16.711947,0.062 -0.03101,0.031 0.03101,-0.031 m -16.670607,0.0517 0.01034,0.0206 -0.01034,-0.0206 m 16.205524,-0.0207 v 0.031 h -0.124021 l 0.124021,-0.031 m 0.06201,0 -0.03101,0.031 0.03101,-0.031 m 8.371478,0 0.031,0.031 -0.031,-0.031 m -24.639013,0.1137 0.01034,0.0206 -0.01034,-0.0206 m 16.25721,0 -0.01036,0.0206 0.01036,-0.0206 m 0.196358,-0.0104 c 0.02396,0 0.005,0.0155 -0.01033,0.0104 l 0.01033,-0.0104 m -16.463901,0.0827 v 0.093 h 0.03101 l -0.03101,-0.093 m 0.465082,0.031 -0.03101,0.031 0.03101,-0.031 m 10.479846,0.062 -0.09302,0.062 0.09302,-0.062 m -10.479846,0.031 -0.06201,0.062 0.06201,-0.062 m 5.022885,0.71312 v -0.71312 c 0.20324,0 0.496335,-0.0532 0.680756,0.0452 0.223239,0.11906 0.197938,0.45324 7.81e-4,0.58306 -0.187986,0.12374 -0.46809,0.0849 -0.681531,0.0849 m -5.405285,-0.66144 -0.01034,0.0207 0.01034,-0.0207 m 2.583788,0.72345 c 0,-0.16498 -0.07324,-0.56172 0.03187,-0.69443 0.06207,-0.0784 0.223705,-0.0513 0.309187,-0.0408 0.309341,0.0381 0.635023,0.34484 0.305931,0.62926 -0.06006,0.0519 -0.135525,0.0818 -0.212915,0.0958 -0.140144,0.0253 -0.292133,0.0102 -0.434076,0.0102 m 8.123431,-0.71313 -0.03101,0.031 0.03101,-0.031 m 0.186033,0.031 0.03101,0.031 v 0.031 l -0.03101,0.031 h -0.03101 l -0.03101,-0.031 v -0.031 l 0.06201,-0.031 m 0.124022,0 -0.03101,0.031 0.03101,-0.031 m -0.155027,0.031 0.03101,0.031 -0.03101,-0.031 m -10.789902,0.062 -0.031,0.031 0.031,-0.031 m -0.124022,0.15502 0.03101,0.031 -0.03101,-0.031 m 0.124022,0.15503 -0.031,0.031 0.031,-0.031 m 0.372066,0.12402 -0.06201,0.093 0.06201,-0.093 m -0.620109,0.24805 0.09302,0.74413 h 0.031 l -0.124021,-0.74413 m 0.155027,0.55809 0.03101,0.031 -0.03101,-0.031 m 0.03101,0.12403 0.03101,0.031 -0.03101,-0.031 m 8.030416,0 0.06201,0.12402 -0.06201,-0.12402 m -0.06201,0.062 -0.03101,0.031 0.03101,-0.031 m 0.03101,0.062 -0.03101,0.031 0.03101,-0.031 m 8.371474,0.0413 c 0.02397,0 0.005,0.0154 -0.01033,0.0103 l 0.01033,-0.0103 m -16.329544,0.0414 0.01034,0.0206 -0.01034,-0.0206 m 7.834048,0.0103 -0.03101,0.031 0.03101,-0.031 m 0.403071,0 -0.03101,0.031 0.03101,-0.031 m -8.319798,0.0517 -0.01034,0.0206 0.01034,-0.0206 m 16.195186,0.0103 c 0.09534,0.095 0.178221,0.11754 0.310054,0.093 -0.03361,0.20536 -0.185785,0.27133 -0.372064,0.18604 l 0.06201,-0.062 -0.09302,-0.093 0.09302,-0.12402 m -8.123431,0.031 -0.06201,0.18604 h -0.03101 l 0.03101,-0.18604 h 0.06201 m -7.906394,0.062 -0.03101,0.031 0.03101,-0.031 m 15.998819,0 0.03101,0.031 -0.03101,-0.031 m 0.403071,0.031 -0.031,0.031 0.031,-0.031 m -0.465082,0.093 -0.031,0.031 0.031,-0.031 m 0.144704,0.0103 0.02064,0.0104 -0.02064,-0.0104 m 8.319789,-0.0103 -0.031,0.031 0.031,-0.031 m -8.247454,0.031 -0.03101,0.062 0.03101,-0.062 m -0.186032,0.18603 -0.09302,-0.031 0.09302,0.031 m 0.186032,-0.031 v 0.031 l -0.124022,0.031 0.03101,-0.093 0.09302,0.031 m -16.184852,0.24804 0.03101,0.65112 h -0.03101 c -0.04505,-0.19707 -0.133488,-0.47491 0,-0.65112 m -0.186033,0.65112 -0.03101,0.031 0.03101,-0.031 m 0,0.062 -0.03101,0.031 0.03101,-0.031 m 0.09302,0.0103 c 0.02398,0 0.005,0.0155 -0.01033,0.0104 l 0.01033,-0.0104 m -0.09302,0.0517 0.031,0.34106 h -0.031 v -0.34106 m 0.09302,0 h 0.03101 0.031 l 0.06201,0.15503 v 0.031 0.27905 l -0.186033,0.031 v -0.12402 h 0.03101 l 0.03101,0.093 h 0.03101 l -0.03101,-0.46508 m 24.421983,0.0207 -0.01036,0.0206 0.01036,-0.0206 m 0.07234,0.25837 v 0.093 h 0.031 l -0.031,-0.093 m -24.060242,0.31005 0.09302,0.18603 -0.713125,0.062 c 0.03732,0.42396 0.421513,0.34285 0.744131,0.3809 0.757522,0.0894 1.536103,-0.008 2.294404,-0.009 3.299291,-0.005 6.591018,0 9.890743,0 0.0369,-0.11692 0.09835,-0.14166 0.217038,-0.15503 l -0.155027,-0.15502 c 0.105356,-0.14275 0.220975,-0.23106 0.403071,-0.21704 l 0.124021,-0.093 -1.08519,-0.031 -2.635465,0.031 h -9.177613 m 24.060243,0 v 0.093 h 0.031 l -0.031,-0.093 m -4.743839,0.062 v 0.12402 l -0.186033,-0.031 0.186033,-0.093 m -2.356416,0.062 v 0.031 h -0.279048 l 0.279048,-0.031 m 0.06201,0 -0.03101,0.031 0.03101,-0.031 m 0.806141,0.0103 c 0.02396,0 0.005,0.0154 -0.01033,0.0104 l 0.01033,-0.0104 m 0.651115,0 c 0.02396,0 0.005,0.0154 -0.01033,0.0104 l 0.01033,-0.0104 m 0.434075,-0.0103 v 0.031 h -0.372065 l 0.372065,-0.031 m -1.240216,0.031 -0.03101,0.031 0.03101,-0.031 m -18.076187,0.12402 0.124022,0.21704 v 0.031 c -0.116605,-0.0383 -0.159833,-0.12983 -0.124022,-0.24805 m 24.463314,0.031 0.031,0.031 -0.031,-0.031 m -24.31862,0.0517 -0.01034,0.0206 0.01034,-0.0206 m 24.194598,0.0103 -0.03101,0.031 0.03101,-0.031 m -11.534035,0.12403 0.03101,0.031 z"
       style="fill:#de101b;stroke:none;stroke-width:0.0310054" />
  </g>
</svg>
