<?xml version="1.0" encoding="UTF-8" standalone="no"?>
<svg
   xmlns:dc="http://purl.org/dc/elements/1.1/"
   xmlns:cc="http://creativecommons.org/ns#"
   xmlns:rdf="http://www.w3.org/1999/02/22-rdf-syntax-ns#"
   xmlns:svg="http://www.w3.org/2000/svg"
   xmlns="http://www.w3.org/2000/svg"
   xmlns:sodipodi="http://sodipodi.sourceforge.net/DTD/sodipodi-0.dtd"
   xmlns:inkscape="http://www.inkscape.org/namespaces/inkscape"
   width="319.08798mm"
   height="92.462738mm"
   viewBox="0 0 319.08798 92.462738"
   version="1.1"
   id="svg8"
   inkscape:version="1.0 (6e3e5246a0, 2020-05-07)"
   sodipodi:docname="setup2.svg">
  <defs
     id="defs2" />
  <sodipodi:namedview
     id="base"
     pagecolor="#ffffff"
     bordercolor="#666666"
     borderopacity="1.0"
     inkscape:pageopacity="0.0"
     inkscape:pageshadow="2"
     inkscape:zoom="0.35"
     inkscape:cx="1203.3229"
     inkscape:cy="922.61466"
     inkscape:document-units="mm"
     inkscape:current-layer="layer1"
     inkscape:document-rotation="0"
     showgrid="false"
     fit-margin-top="0"
     fit-margin-left="0"
     fit-margin-right="0"
     fit-margin-bottom="0"
     inkscape:window-width="1865"
     inkscape:window-height="1025"
     inkscape:window-x="55"
     inkscape:window-y="27"
     inkscape:window-maximized="1" />
  <metadata
     id="metadata5">
    <rdf:RDF>
      <cc:Work
         rdf:about="">
        <dc:format>image/svg+xml</dc:format>
        <dc:type
           rdf:resource="http://purl.org/dc/dcmitype/StillImage" />
        <dc:title></dc:title>
      </cc:Work>
    </rdf:RDF>
  </metadata>
  <g
     inkscape:label="Layer 1"
     inkscape:groupmode="layer"
     id="layer1"
     transform="translate(212.54584,113.26459)">
    <path
       style="fill:#4f4f4f;fill-opacity:1;stroke-width:0.264583"
       d="m -197.41979,-20.868876 c -2.3389,-0.35074 -3.83911,-0.8006 -5.80597,-1.74099 -4.27159,-2.04234 -7.77066,-6.40765 -8.86333,-11.057567 -0.609,-2.59166 -0.609,-64.08334 0,-66.674997 1.3531,-5.75818 5.95817,-10.49591 12.02347,-12.36979 1.34375,-0.41516 5.33581,-0.456 52.12291,-0.53329 33.17452,-0.0548 51.370345,0.009 52.702835,0.18425 3.95649,0.52094 6.903182,1.97128 9.727552,4.78782 2.02167,2.01607 3.49628,4.40759 4.31924,7.00497 l 0.58683,1.852077 v 32.41146 c 0,30.68775 -0.0258,32.4951 -0.48533,33.98414 -1.76556,5.721147 -6.02638,9.984477 -11.685502,11.692397 -1.50659,0.45469 -4.1968,0.48114 -52.784375,0.51891 -28.15828,0.0219 -51.49453,-0.005 -51.85833,-0.0594 z m 104.727615,-8.01678 c 2.837862,-1.53865 4.508732,-3.909847 5.072382,-7.198417 0.20025,-1.16835 0.26506,-10.96588 0.21154,-31.97919 l -0.0772,-30.29479 -0.63726,-1.5875 c -0.88843,-2.213197 -3.537812,-4.856367 -5.661802,-5.648557 l -1.53657,-0.5731 -51.512385,0.0681 -51.51239,0.0681 -1.5176,0.71125 c -1.93619,0.90742 -3.86152,2.83274 -4.85077,4.85076 l -0.77538,1.581727 v 31.75 c 0,29.9501 0.027,31.81583 0.47556,32.91119 1.11542,2.723507 3.0217,4.648327 5.69494,5.750327 l 1.50241,0.61935 51.72605,-0.0613 51.726035,-0.0613 z m -96.972255,-8.764007 c -2.10238,-0.67394 -4.25967,-2.58785 -5.29626,-4.69872 l -0.73931,-1.50551 0.006,-7.27604 c 0.006,-7.20663 0.013,-7.29643 0.72478,-9.41345 1.27405,-3.78945 3.95351,-7.18319 7.25463,-9.18851 1.55416,-0.9441 5.15963,-2.30012 6.11569,-2.30012 0.38606,0 0.0713,-0.45081 -1.26297,-1.80917 -2.71981,-2.76879 -3.96846,-5.77927 -3.96846,-9.56791 0,-3.7773 1.27096,-6.82838 3.978,-9.54965 7.36436,-7.403077 20.17288,-4.58058 23.53299,5.18576 1.68117,4.8864 0.38808,10.36966 -3.30313,14.00676 l -1.66307,1.63869 1.62024,0.35945 c 5.79351,1.28529 10.9285,6.38205 12.52937,12.43607 0.37386,1.41385 0.45641,2.9671 0.46402,8.73125 l 0.009,7.01146 -0.73548,1.49768 c -0.88205,1.79614 -2.3766,3.21003 -4.39214,4.15509 l -1.48696,0.69723 -15.875,0.0573 c -15.19158,0.0548 -15.94549,0.0347 -17.51236,-0.46762 z m 32.56054,-6.94108 c 0.42573,-0.3113 0.45789,-0.88606 0.3813,-6.81302 -0.082,-6.3457 -0.0972,-6.50167 -0.77424,-7.92825 -1.51361,-3.18951 -4.41259,-5.32091 -7.92829,-5.82908 -2.29988,-0.33242 -12.66056,-0.31832 -14.79675,0.0201 -2.37618,0.37649 -4.28152,1.40342 -5.95244,3.20821 -2.32882,2.51541 -2.58371,3.49119 -2.71813,10.40592 -0.11006,5.66098 -0.0974,5.84082 0.46144,6.54844 l 0.57462,0.7276 h 15.14377 c 11.9172,0 15.24283,-0.0724 15.60872,-0.33998 z m -13.40213,-32.33868 c 1.70805,-0.50723 3.81951,-2.36289 4.43528,-3.89794 1.81973,-4.53641 -1.53776,-9.26097 -6.61051,-9.30213 -5.96145,-0.0484 -9.32311,6.20619 -5.81071,10.81118 1.79203,2.34948 4.94384,3.2923 7.98594,2.38889 z m 31.7926,31.91604 c -0.92636,-0.92637 -1.0272,-1.16052 -1.0272,-2.38514 0,-1.17721 0.12052,-1.48946 0.90563,-2.34623 l 0.90563,-0.9883 19.26884,-0.068 c 18.957905,-0.0669 19.282985,-0.0594 20.144665,0.46881 2.13792,1.31051 2.12209,4.5162 -0.0288,5.82766 -0.81947,0.49966 -1.470465,0.51651 -19.994315,0.51746 l -19.14727,10e-4 -1.02721,-1.0272 z m 0.49748,-12.61614 c -1.51877,-0.82407 -2.06003,-3.59638 -0.97215,-4.97939 1.21353,-1.54276 0.41307,-1.4856 20.80356,-1.4856 17.66287,0 18.789355,0.0278 19.658445,0.48546 2.2349,1.17685 2.42367,4.21975 0.36235,5.84118 -0.69797,0.54902 -0.82432,0.55246 -19.915175,0.54193 -16.47806,-0.009 -19.31585,-0.0665 -19.93703,-0.40358 z m 0.15984,-12.79331 c -0.45595,-0.27803 -1.0215,-0.78033 -1.25677,-1.11622 -0.53871,-0.76911 -0.55228,-2.65967 -0.0264,-3.67662 0.84573,-1.63548 0.0883,-1.57884 21.11336,-1.57884 19.029145,0 19.164535,0.004 19.862175,0.55253 2.06131,1.62143 1.87255,4.66433 -0.36236,5.84118 -0.86921,0.4577 -1.996065,0.4854 -19.711445,0.48447 -18.02982,-0.001 -18.82307,-0.0214 -19.61856,-0.5065 z m 0.27827,-12.97802 c -0.30291,-0.12254 -0.86846,-0.60038 -1.25677,-1.06187 -0.56064,-0.66628 -0.70602,-1.11371 -0.70602,-2.1728 0,-1.19652 0.10568,-1.43943 1.0272,-2.36095 l 1.02721,-1.02721 19.14727,9.8e-4 c 18.52385,9.5e-4 19.174845,0.0178 19.994315,0.51747 2.15083,1.31143 2.16668,4.52131 0.0288,5.82476 -0.85755,0.52283 -1.2704,0.53364 -19.793515,0.51819 -10.40474,-0.009 -19.16555,-0.11604 -19.46846,-0.23858 z"
       id="path845" />
    <text
       xml:space="preserve"
       style="font-style:normal;font-variant:normal;font-weight:bold;font-stretch:normal;font-size:43.3758px;line-height:1.25;font-family:sans-serif;-inkscape-font-specification:'sans-serif, Bold';font-variant-ligatures:normal;font-variant-caps:normal;font-variant-numeric:normal;font-variant-east-asian:normal;letter-spacing:0px;word-spacing:0px;fill:#4f4f4f;fill-opacity:1;stroke:none;stroke-width:1.0844"
       x="-50.906952"
       y="-50.862606"
       id="text861"><tspan
         sodipodi:role="line"
         id="tspan859"
         x="-50.906952"
         y="-50.862606"
         style="font-style:normal;font-variant:normal;font-weight:bold;font-stretch:normal;font-size:43.3758px;font-family:sans-serif;-inkscape-font-specification:'sans-serif, Bold';font-variant-ligatures:normal;font-variant-caps:normal;font-variant-numeric:normal;font-variant-east-asian:normal;fill:#4f4f4f;fill-opacity:1;stroke-width:1.0844">Profile</tspan></text>
  </g>
</svg>
